<?xml version="1.0" encoding="UTF-8"?>
<svg id="_Слой_1" data-name="Слой 1" xmlns="http://www.w3.org/2000/svg" viewBox="0 0 441 435.82">
  <defs>
    <style>
      .cls-1 {
        fill: #fefefe;
      }

      .cls-1, .cls-2, .cls-3, .cls-4, .cls-5, .cls-6, .cls-7, .cls-8, .cls-9, .cls-10, .cls-11, .cls-12, .cls-13, .cls-14, .cls-15, .cls-16, .cls-17, .cls-18 {
        stroke-width: 0px;
      }

      .cls-2 {
        fill: #a76dfe;
      }

      .cls-3 {
        fill: #f5f5f3;
      }

      .cls-4 {
        fill: #f5f6f4;
      }

      .cls-5 {
        fill: #ecd8fa;
      }

      .cls-6 {
        fill: #cbabf7;
      }

      .cls-7 {
        fill: #d1b2f5;
      }

      .cls-8 {
        fill: #c39ffa;
      }

      .cls-9 {
        fill: #f6f6f4;
      }

      .cls-10 {
        fill: #ceb1f7;
      }

      .cls-11 {
        fill: #cdb1f5;
      }

      .cls-12 {
        fill: #d3b8f8;
      }

      .cls-13 {
        fill: #ceb0f7;
      }

      .cls-14 {
        fill: #e3cdf8;
      }

      .cls-15 {
        fill: #f6f5f4;
      }

      .cls-16 {
        fill: #d266bd;
      }

      .cls-17 {
        fill: #c070da;
      }

      .cls-18 {
        fill: #d9c1f5;
      }
    </style>
  </defs>
  <path class="cls-2" d="m440.95.6v434.04c-.85.71-1.88.55-2.86.54-16-.19-31.99.4-47.98.28-2.26-.02-4.52,0-6.78,0-8.58,0-17.15,0-25.73.01-.88,0-1.81-.24-2.65.26H.6c-.51-.94-.26-1.96-.26-2.94-.01-143.04-.01-286.08,0-429.11C.34-.06-.05.34,3.68.34c144.78,0,289.55,0,434.33,0,.98,0,1.99-.25,2.93.26Z"/>
  <path class="cls-1" d="m440.95.6c-145.38.01-290.75.02-436.13.04C.05.65.61.01.61,4.81c-.01,143.64,0,287.28,0,430.92-.18-.09-.51-.17-.52-.27-.05-.72-.02-1.45-.02-2.18C.06,289.74.07,146.19,0,2.65,0,.44.44,0,2.65,0c145.28.07,290.57.06,435.85.08.82,0,1.63.34,2.45.52Z"/>
  <path class="cls-16" d="m383.25,435.2c19.23-.19,38.46-.37,57.7-.56.33,1.68-.94,1.07-1.63,1.07-6.89.03-13.79.02-20.68.02h-35.38c-.36-.18-.36-.35,0-.53Z"/>
  <path class="cls-17" d="m383.25,435.2c0,.18,0,.36,0,.53h-28.3c.95-.18,1.91-.51,2.86-.52,8.48-.04,16.96-.02,25.44-.02Z"/>
  <path class="cls-9" d="m312.48,247.84c-12.36,16.56-24.69,33.15-37.1,49.68-11.1,14.77-22.31,29.45-33.44,44.2-3.28,4.34-6.43,8.77-9.65,13.15-11.64,15.84-23.29,31.67-34.91,47.52-1.07,1.46-2.03,3.01-2.94,4.57-1.02,1.74-1.96,1.82-3.26.23-4.64-5.67-9.42-11.23-14.01-16.94-9.6-11.93-19.07-23.96-28.68-35.88-13.76-17.07-27.58-34.08-41.41-51.09-6.05-7.44-12.19-14.82-18.3-22.22-6.63-8.45-13.49-16.72-20.04-25.23-.46-.6-1.45-1.13-.64-2.03.72-.8,1.51-.14,2.21.2,8.59,4.23,17.15,8.55,25.69,12.89,8.24,4.18,16.65,8,24.89,12.16,8.08,4.08,16.14,8.21,24.4,11.89,12.82,5.71,25.13,12.44,37.92,18.17,3.83,1.72,7.08,1.02,10.25-1.77,5.63-4.96,11.5-9.65,17.04-14.72,6.21-5.67,12.38-11.41,18.86-16.75,6.84-5.65,13.29-11.72,19.93-17.57,4.96-4.37,9.77-8.91,14.63-13.39,5.58-5.14,11.57-9.8,17.1-14.98,5.48-5.14,11.23-9.99,16.54-15.31.51-.51.96-1.1,1.67-1.35,3.64-2.43,6.54-5.7,9.76-8.59,5.64-5.07,11.54-9.84,17.07-15.04,7.65-7.19,15.34-14.33,23.17-21.34,8.02-7.18,16.12-14.28,24.08-21.53,7.16-6.52,14.18-13.2,21.45-19.59,5.5-4.83,11.08-9.57,16.5-14.49.87-.79,1.68-1.66,2.56-2.43.57-.5,1.08-1.53,2-.82,1,.77.01,1.45-.41,2.05-4.09,5.86-8.3,11.63-12.78,17.18-9.46,11.74-18.3,23.94-27.28,36.04-4.96,6.89-9.92,13.77-15.16,20.45-7.36,9.37-14.49,18.92-21.65,28.44-7.55,10.04-14.93,20.2-22.5,30.23-1.06,1.41-2.62,2.45-3.56,4.01Z"/>
  <path class="cls-9" d="m93.83,140.54c.28-7.21,5.57-13.84,12.48-15.94,12.75-3.86,25.46-7.87,38.14-11.96,27-8.7,53.97-17.47,80.95-26.23,10.59-3.44,20.65,1.66,24.09,12.27,3.42,10.52,6.97,21,10.1,31.6.66,2.24.19,5.08-.51,7.41-1.57,5.18-4.29,9.49-9.99,11.27-11.42,3.55-22.78,7.32-34.17,10.97-20.88,6.68-41.77,13.36-62.67,20.01-8.03,2.56-16.07,5.09-24.15,7.53-5.6,1.69-11.28,1.46-16.39-1.29-2.28-1.23-4.33-3.7-5.47-6.09-2.16-4.55-3.7-9.41-5.3-14.21-2.03-6.11-3.92-12.26-5.74-18.44-.66-2.24-.93-4.6-1.38-6.9Z"/>
  <path class="cls-3" d="m284.26,209.91c-.29,7.88-2.86,11.84-11.44,15.3-13.16,5.3-26.74,9.61-40.22,14.07-13.59,4.5-27.28,8.67-40.93,13-12.87,4.08-25.8,8-38.58,12.35-9.86,3.36-19.89-2.57-22.76-11.63-3.53-11.15-7.1-22.29-10.5-33.48-1.34-4.43-.38-8.59,3.28-11.57,2.41-1.96,5.09-3.92,7.98-4.88,18.32-6.05,36.74-11.83,55.13-17.68,13.64-4.35,27.29-8.65,40.92-13.03,7.5-2.41,14.94-5.01,22.45-7.4,2.23-.71,4.57-1.2,6.9-1.41,6.6-.6,11.56,2.34,14.47,8.07,2.81,5.53,5.2,11.31,7.34,17.14,1.97,5.35,3.4,10.9,5,16.39.45,1.55.64,3.18.95,4.78Z"/>
  <path class="cls-9" d="m265.17,62.67c1.54,3.27,3.5,6.4,4.57,9.82,10.71,34.06,21.28,68.17,31.88,102.26,1.62,5.2,3.21,10.4,4.78,15.61.73,2.42-1.19,6.12-3.62,6.55-.57.1-1.77-1.03-2.03-1.81-1.78-5.42-3.39-10.9-5.05-16.36-7.13-23.42-14.21-46.86-21.42-70.27-3.7-12.03-7.44-24.05-11.55-35.94-1.82-5.25-4.65-10.29-10.74-11.72-2.55-.6-5.54-.92-7.96-.17-30.4,9.37-60.74,18.98-91.09,28.5-23.35,7.32-46.68,14.71-70.08,21.87-8,2.45-15.32,12.28-11.03,22.92,5.61,13.94,9.67,28.5,14.39,42.79,5.86,17.74,11.66,35.51,17.61,53.22,3.63,10.81,7.5,21.54,11.24,32.32.28.82.31,1.72.46,2.58-.91-.22-1.84-.34-2.71-.66-3.64-1.34-5.74-3.81-6.86-7.69-1.75-6.07-4.16-11.94-6.29-17.9-3.55-10.82-7.08-21.64-10.69-32.43-4.36-13.04-8.59-26.12-12.99-39.15-3.55-10.54-6.75-21.2-10.65-31.62-.92-2.46-1.65-4.99-2.05-7.53-.55-3.5.85-6.8,2.31-9.89,1.87-3.97,4.74-7.25,7.89-10.29,1.93-1.86,4.59-2.12,6.96-2.86,7.33-2.28,14.59-4.8,21.96-6.94,2.94-.85,3.5-1.94,2.42-4.48-2.45-5.78-.54-10.66,5.37-12.74,8.26-2.9,16.63-5.49,24.98-8.14,4.48-1.42,8.85-3.19,13.47-4.13,12.29-4.02,24.61-7.94,36.92-11.87,5.25-1.67,10.48-3.43,15.79-4.87,2.72-.74,6.24,1.29,7.11,3.96.64,1.98,1.38,3.94,1.8,5.98.39,1.91,1.19,2.33,3.03,1.7,8.3-2.84,16.77-5.18,25.09-7.95,10.34-3.43,21.2.06,26.77,7.31Z"/>
  <path class="cls-7" d="m341.03,304.05c-.21,10.29-6.81,19.5-16.59,22.69-14.29,4.65-28.61,9.21-42.92,13.81-10.52,3.38-21.05,6.75-31.57,10.13-.43.14-.86.36-1.3.39-.69.06-1.38-.01-2.07-.03.21-.72.29-1.53.67-2.14.78-1.22,1.78-2.29,2.59-3.48,1.69-2.5,3.91-4.11,6.83-5.04,15.36-4.89,30.68-9.92,46.03-14.85,6.21-1.99,12.53-3.64,18.66-5.84,5.61-2.02,10.21-5.68,11.33-11.81.64-3.51.37-7.51-.62-10.95-3.75-12.97-7.97-25.8-12.02-38.69-.93-2.97.79-7.95,3.41-9.38,1.71-.94,1.99.6,2.32,1.68,1.55,5.12,3.03,10.25,4.57,15.38,3.31,11.02,6.68,22.03,9.94,33.06.48,1.62.51,3.38.75,5.08Z"/>
  <path class="cls-13" d="m299.44,213.55c-7.03,6.4-14.03,12.83-21.08,19.2-8.39,7.57-16.85,15.06-25.26,22.62-6.13,5.51-12.16,11.12-18.33,16.59-8.05,7.14-16.16,14.19-24.28,21.25-5.54,4.81-11.24,9.44-16.65,14.38-3.69,3.36-7.5,3.61-11.74,1.55-9.94-4.84-19.86-9.73-29.82-14.53-17.46-8.41-34.98-16.69-52.4-25.18-9.68-4.72-19.22-9.73-28.82-14.62-.32-.16-.64-.39-.98-.46-.49-.11-1.01-.1-1.51-.15.15.47.2,1.02.48,1.39,2.73,3.5,5.48,6.98,8.26,10.44,3.29,4.09,6.64,8.13,9.91,12.24.66.83,1.05,1.86,1.57,2.8-3.05-3.57-6.16-7.08-9.13-10.71-4.18-5.11-8.26-10.31-12.39-15.48-.17-.21-.44-.39-.5-.63-.19-.72-.3-1.47-.44-2.2.65.15,1.36.18,1.95.47,4.31,2.13,8.58,4.34,12.88,6.47,16.73,8.28,33.44,16.6,50.22,24.79,13.27,6.47,26.63,12.75,39.94,19.13,3.51,1.68,7.01,3.38,10.5,5.09,5.02,2.47,8.13,1.87,12.32-1.85,7.17-6.38,14.49-12.58,21.72-18.89,4.23-3.69,8.41-7.43,12.61-11.16,9.54-8.47,19.08-16.94,28.6-25.44,4.12-3.68,8.18-7.43,12.28-11.13,9.54-8.61,19.09-17.22,28.65-25.81.39-.35.93-.52,1.41-.77.15.13.21.26.17.4-.04.14-.08.22-.12.22Z"/>
  <path class="cls-14" d="m299.44,213.55c-.02-.2-.03-.41-.05-.61,5.34-4.73,10.72-9.42,16.02-14.19,4.71-4.24,9.34-8.57,14.01-12.85,8.54-7.84,17.04-15.71,25.63-23.5,6.7-6.08,13.55-11.99,20.26-18.07,7.31-6.63,14.5-13.4,21.8-20.04,6.69-6.07,13.47-12.05,20.21-18.06.27-.24.5-.57.81-.71.55-.25,1.14-.39,1.72-.58-.13.63-.08,1.4-.42,1.88-4.42,6.08-8.83,12.17-13.36,18.17-9.49,12.55-19.05,25.05-28.59,37.56-.55.72-1.17,1.38-1.75,2.06-.24.26-.45.24-.63-.07,3.06-4.15,6.13-8.3,9.18-12.45,4.18-5.7,8.28-11.45,12.53-17.09,5.94-7.87,11.99-15.65,17.97-23.49.33-.44.45-1.04.67-1.57-.52.27-1.12.44-1.54.82-4.62,4.21-9.16,8.51-13.81,12.67-11.32,10.14-22.74,20.17-34.03,30.34-10.76,9.7-21.41,19.52-32.11,29.28-6.09,5.55-12.17,11.12-18.29,16.64-4.7,4.24-9.45,8.42-14.2,12.6-.59.52-1.35.85-2.03,1.26Z"/>
  <path class="cls-12" d="m148.65,68.68c-12.41,4.01-24.8,8.06-37.23,11.98-3.18,1-5.52,3.11-6.81,5.85-.74,1.58-.32,4.14.43,5.9,1.69,3.97,1.62,4.58-2.33,5.84-7.76,2.46-15.44,5.27-23.31,7.31-5.47,1.42-8.59,5.18-11.48,9.32-4.48,6.43-4.69,13.19-2.04,20.64,5.47,15.37,10.31,30.96,15.44,46.46,5.67,17.12,11.37,34.23,17.03,51.36.56,1.71.89,3.5,1.32,5.25-1.71-4.66-3.52-9.29-5.1-13.99-4.8-14.26-9.55-28.54-14.26-42.83-4.23-12.84-8.33-25.71-12.55-38.55-1.47-4.46-3.19-8.84-4.73-13.28-1.1-3.19-.16-6.22.93-9.21,2.01-5.51,5.39-10.13,9.87-13.76,1.87-1.51,4.6-2.03,7-2.81,7.16-2.3,14.35-4.53,21.55-6.74,2.01-.61,2.49-1.75,1.87-3.71-2.32-7.28-.15-11.56,7.1-13.94,11.53-3.78,23.09-7.49,34.65-11.19.85-.27,1.77-.31,2.66-.45.2.12.26.24.2.37-.06.12-.13.18-.2.18Z"/>
  <path class="cls-11" d="m164.99,279.43c2.43-.95,4.8-2.04,7.28-2.82,16.06-5.07,32.14-10.07,48.21-15.09,4.15-1.3,8.28-2.62,12.43-3.9.77-.24,1.6-.49,2.37-.43.3.02.86,1.14.71,1.39-.47.75-1.2,1.34-1.87,1.95-6.21,5.54-12.53,10.95-18.62,16.62-8.41,7.84-16.63,15.88-24.94,23.83-3.03,2.9-3.57,2.96-7.3.99-9.84-5.21-19.69-10.4-29.51-15.65-.97-.52-1.74-1.43-2.6-2.16.95-.57,1.84-1.35,2.86-1.67,3.62-1.1,7.3-2.04,10.95-3.04.16,1.76-1.36,1.94-2.41,2.44-1.63.78-3.48.99-5.12,1.78-.55.26-1.44.22-1.47.96-.03.66.75.98,1.29,1.25,3.88,1.95,7.75,3.93,11.57,6,5.01,2.71,10.11,5.28,15.01,8.18,2.06,1.22,3.69,1.03,5.35-.55,1.25-1.19,2.47-2.4,3.68-3.62,10.53-10.72,21.93-20.53,32.7-31,1.64-1.6,3.46-3.05,5.63-4.62-10.02,3.18-19.65,6.31-29.31,9.36-11.12,3.5-22.25,6.99-33.42,10.36-1.21.36-2.5.72-3.5-.53Z"/>
  <path class="cls-18" d="m148.65,68.68c0-.18,0-.37,0-.55,10.06-3.29,20.11-6.61,30.18-9.88,6.88-2.23,13.78-4.41,20.67-6.6,4.84-1.54,8.25.23,9.85,5.12.48,1.46.97,2.93,1.26,4.44.36,1.86,1.28,2.06,2.92,1.53,7.58-2.45,15.23-4.65,22.76-7.25,7.84-2.71,15.49-3,22.73,1.37,2.36,1.42,4.11,3.84,6.15,5.81-3.75-3.5-7.86-6.28-12.99-7.51-4.39-1.06-8.66-.77-12.86.49-8.67,2.6-17.31,5.33-25.93,8.09-1.92.62-3.07.57-3.47-1.78-.29-1.68-1.03-3.28-1.54-4.93-1.32-4.26-4.25-5.88-8.48-4.56-8.73,2.74-17.44,5.51-26.15,8.31-7.67,2.46-15.32,4.98-22.98,7.45-.68.22-1.41.3-2.12.45Z"/>
  <path class="cls-6" d="m311.43,295.96c-.03,6.75-2.78,10.94-9.01,13.21-8.92,3.25-17.97,6.15-26.97,9.18-.67.23-1.44.36-2.13.27-.65-.08-1.56-.36-1.8-.84-.22-.44.15-1.37.54-1.87,4.96-6.44,10.04-12.79,14.95-19.27,5.14-6.78,10.1-13.7,15.2-20.51.48-.64,1.38-1.23,2.12-1.29.39-.03,1.05,1.09,1.29,1.79,1.91,5.76,3.77,11.54,5.59,17.33.26.84.2,1.79.22,2Z"/>
  <path class="cls-10" d="m375.1,164.54c.21.02.42.05.63.07-3.62,5.07-7.13,10.22-10.88,15.19-13.22,17.54-26.51,35.02-39.81,52.5-3.71,4.88-7.54,9.68-11.34,14.5-.33.41-.81.7-1.23,1.04,1.11-1.49,2.22-2.98,3.32-4.47,7.68-10.4,15.32-20.82,23.04-31.19,5.5-7.4,11.08-14.74,16.66-22.08,6.5-8.54,13.06-17.05,19.59-25.57Z"/>
  <path class="cls-5" d="m146.43,366.06c1.39,1.51,2.83,2.98,4.16,4.54.28.33.19.97.28,1.47-.54-.09-1.2-.02-1.59-.31-1.51-1.13-2.94-2.38-4.39-3.59-1.14-1.7-3.2-2.73-3.58-4.97-.12-.69-.55-1.5.22-1.99.86-.54,1.32.34,1.74.83,1.11,1.29,2.19,2.62,3.17,4.02Z"/>
  <path class="cls-8" d="m146.43,366.06c-1.15-1.26-2.27-2.53-3.46-3.75-.28-.29-.74-.4-1.11-.59-.07.43-.31.94-.16,1.27.44.96,1.01,1.87,1.57,2.77.51.82,1.07,1.62,1.61,2.42-2.51-1.59-4.07-3.8-4.34-6.81-.04-.48.25-.98.39-1.48.46.2,1.09.26,1.36.61,1.43,1.82,2.77,3.7,4.14,5.56Z"/>
  <path class="cls-15" d="m340.19,303.06c-.04,10.49-6.38,19.5-15.46,22.49-16.42,5.43-32.88,10.75-49.33,16.07-8.53,2.76-17.09,5.42-25.64,8.11-.48.15-1.02.12-1.53.18.19-.53.33-1.08.57-1.58,2.74-5.9,8.47-7.19,13.87-8.94,14.22-4.59,28.46-9.12,42.7-13.65,5.52-1.75,11.18-3.12,16.57-5.2,7.83-3.01,14.17-10.23,11.88-19.77-1.79-7.46-4.22-14.77-6.44-22.13-2.2-7.29-4.5-14.54-6.74-21.82-.56-1.82,1.26-5.89,2.93-6.35.35-.09,1.21.61,1.37,1.09,1.55,4.83,3,9.69,4.47,14.55,3.27,10.75,6.56,21.49,9.78,32.26.54,1.81.8,3.71,1,4.68Z"/>
  <path class="cls-9" d="m164.99,279.43c3.91-1.06,7.87-1.99,11.74-3.21,17.52-5.51,35.02-11.1,52.53-16.66.51-.16,1.06-.28,1.59-.32.9-.06,1.81-.04,2.71-.06-.63.74-1.19,1.56-1.91,2.2-4.7,4.23-9.54,8.32-14.15,12.66-9.09,8.57-18.05,17.28-27.08,25.92-3.32,3.18-3.61,3.04-7.66.81-8.01-4.4-16.13-8.61-24.19-12.91-1.44-.77-2.87-1.54-4.27-2.38-.42-.26-.71-.74-1.06-1.13.44-.38.82-.91,1.34-1.11,3.45-1.32,6.93-2.56,10.39-3.83h0Z"/>
  <path class="cls-4" d="m310.8,296.07c-.13,6.15-3.4,10.56-9.28,12.61-8.19,2.85-16.44,5.55-24.66,8.31-.34.12-.69.31-1.04.31-1.03,0-2.06-.09-3.09-.15.54-.67,1.09-1.34,1.6-2.03,5.45-7.33,10.91-14.65,16.35-21.99,3.82-5.16,7.59-10.36,11.44-15.5.49-.66,1.36-1.03,2.06-1.54.36.7.81,1.38,1.06,2.12,1.77,5.31,3.51,10.64,5.22,15.97.24.76.29,1.59.34,1.89Z"/>
</svg>